<?xml version="1.0" encoding="utf-8"?>
<svg version="1.1" xmlns:xlink="http://www.w3.org/1999/xlink" width="20px" height="20px" xmlns="http://www.w3.org/2000/svg">
  <g transform="matrix(1 0 0 1 -642 -428 )">
    <path d="M 14.4140625 12.0833333333333  C 14.4140625 12.1961805555556  14.3706597222222 12.2960069444444  14.2838541666667 12.3828125  L 12.3828125 14.2838541666667  C 12.2960069444444 14.3706597222222  12.1961805555556 14.4140625  12.0833333333333 14.4140625  C 11.9704861111111 14.4140625  11.8706597222222 14.3706597222222  11.7838541666667 14.2838541666667  L 10 12.5  L 8.21614583333333 14.2838541666667  C 8.12934027777778 14.3706597222222  8.02951388888889 14.4140625  7.91666666666667 14.4140625  C 7.80381944444445 14.4140625  7.70399305555556 14.3706597222222  7.6171875 14.2838541666667  L 5.71614583333333 12.3828125  C 5.62934027777778 12.2960069444444  5.5859375 12.1961805555556  5.5859375 12.0833333333333  C 5.5859375 11.9704861111111  5.62934027777778 11.8706597222222  5.71614583333333 11.7838541666667  L 7.5 10  L 5.71614583333333 8.21614583333333  C 5.62934027777778 8.12934027777778  5.5859375 8.02951388888889  5.5859375 7.91666666666667  C 5.5859375 7.80381944444444  5.62934027777778 7.70399305555555  5.71614583333333 7.6171875  L 7.6171875 5.71614583333333  C 7.70399305555556 5.62934027777778  7.80381944444445 5.5859375  7.91666666666667 5.5859375  C 8.02951388888889 5.5859375  8.12934027777778 5.62934027777778  8.21614583333333 5.71614583333333  L 10 7.5  L 11.7838541666667 5.71614583333333  C 11.8706597222222 5.62934027777778  11.9704861111111 5.5859375  12.0833333333333 5.5859375  C 12.1961805555556 5.5859375  12.2960069444444 5.62934027777778  12.3828125 5.71614583333333  L 14.2838541666667 7.6171875  C 14.3706597222222 7.70399305555555  14.4140625 7.80381944444444  14.4140625 7.91666666666667  C 14.4140625 8.02951388888889  14.3706597222222 8.12934027777778  14.2838541666667 8.21614583333333  L 12.5 10  L 14.2838541666667 11.7838541666667  C 14.3706597222222 11.8706597222222  14.4140625 11.9704861111111  14.4140625 12.0833333333333  Z M 16.1328125 13.5546875  C 16.7664930555556 12.4696180555556  17.0833333333333 11.2847222222222  17.0833333333333 10  C 17.0833333333333 8.71527777777778  16.7664930555556 7.53038194444444  16.1328125 6.4453125  C 15.4991319444444 5.36024305555555  14.6397569444444 4.50086805555555  13.5546875 3.8671875  C 12.4696180555556 3.23350694444444  11.2847222222222 2.91666666666667  10 2.91666666666667  C 8.71527777777778 2.91666666666667  7.53038194444445 3.23350694444444  6.4453125 3.8671875  C 5.36024305555556 4.50086805555555  4.50086805555556 5.36024305555555  3.8671875 6.4453125  C 3.23350694444444 7.53038194444444  2.91666666666667 8.71527777777778  2.91666666666667 10  C 2.91666666666667 11.2847222222222  3.23350694444444 12.4696180555556  3.8671875 13.5546875  C 4.50086805555556 14.6397569444444  5.36024305555556 15.4991319444444  6.4453125 16.1328125  C 7.53038194444445 16.7664930555556  8.71527777777778 17.0833333333333  10 17.0833333333333  C 11.2847222222222 17.0833333333333  12.4696180555556 16.7664930555556  13.5546875 16.1328125  C 14.6397569444444 15.4991319444444  15.4991319444444 14.6397569444444  16.1328125 13.5546875  Z M 18.6588541666667 4.98046875  C 19.5529513888889 6.51258680555555  20 8.18576388888889  20 10  C 20 11.8142361111111  19.5529513888889 13.4874131944444  18.6588541666667 15.01953125  C 17.7647569444444 16.5516493055556  16.5516493055556 17.7647569444444  15.01953125 18.6588541666667  C 13.4874131944444 19.5529513888889  11.8142361111111 20  10 20  C 8.18576388888889 20  6.51258680555556 19.5529513888889  4.98046875 18.6588541666667  C 3.44835069444444 17.7647569444444  2.23524305555556 16.5516493055556  1.34114583333333 15.01953125  C 0.447048611111111 13.4874131944444  0 11.8142361111111  0 10  C 0 8.18576388888889  0.447048611111111 6.51258680555555  1.34114583333333 4.98046875  C 2.23524305555556 3.44835069444444  3.44835069444444 2.23524305555555  4.98046875 1.34114583333333  C 6.51258680555556 0.447048611111109  8.18576388888889 0  10 0  C 11.8142361111111 0  13.4874131944444 0.447048611111109  15.01953125 1.34114583333333  C 16.5516493055556 2.23524305555555  17.7647569444444 3.44835069444444  18.6588541666667 4.98046875  Z " fill-rule="nonzero" fill="#000000" stroke="none" transform="matrix(1 0 0 1 642 428 )" />
  </g>
</svg>