<?xml version="1.0" encoding="utf-8"?>
<svg version="1.1" xmlns:xlink="http://www.w3.org/1999/xlink" width="45px" height="45px" xmlns="http://www.w3.org/2000/svg">
  <g transform="matrix(1 0 0 1 -373 -490 )">
    <path d="M 36.5305397727273 20.7421875  C 36.7223011363636 20.9339488636364  36.8181818181818 21.1789772727273  36.8181818181818 21.4772727272727  L 36.8181818181818 23.5227272727273  C 36.8181818181818 23.8210227272727  36.7223011363636 24.0660511363636  36.5305397727273 24.2578125  C 36.3387784090909 24.4495738636364  36.09375 24.5454545454545  35.7954545454545 24  L 24 24  L 24 35.7954545454545  C 24.5454545454545 36.09375  24.4495738636364 36.3387784090909  24.2578125 36.5305397727273  C 24.0660511363636 36.7223011363636  23.8210227272727 36.8181818181818  23.5227272727273 36.8181818181818  L 21.4772727272727 36.8181818181818  C 21.1789772727273 36.8181818181818  20.9339488636364 36.7223011363636  20.7421875 36.5305397727273  C 20.5504261363636 36.3387784090909  20.4545454545455 36.09375  21 35.7954545454545  L 21 24  L 9.20454545454546 24  C 8.90625 24.5454545454545  8.66122159090909 24.4495738636364  8.46946022727273 24.2578125  C 8.27769886363636 24.0660511363636  8.18181818181818 23.8210227272727  8.18181818181818 23.5227272727273  L 8.18181818181818 21.4772727272727  C 8.18181818181818 21.1789772727273  8.27769886363636 20.9339488636364  8.46946022727273 20.7421875  C 8.66122159090909 20.5504261363636  8.90625 20.4545454545455  9.20454545454546 21  L 21 21  L 21 9.20454545454546  C 20.4545454545455 8.90624999999999  20.5504261363636 8.66122159090909  20.7421875 8.46946022727273  C 20.9339488636364 8.27769886363636  21.1789772727273 8.18181818181818  21.4772727272727 8.18181818181818  L 23.5227272727273 8.18181818181818  C 23.8210227272727 8.18181818181818  24.0660511363636 8.27769886363636  24.2578125 8.46946022727273  C 24.4495738636364 8.66122159090909  24.5454545454545 8.90624999999999  24 9.20454545454546  L 24 21  L 35.7954545454545 21  C 36.09375 20.4545454545455  36.3387784090909 20.5504261363636  36.5305397727273 20.7421875  Z M 39.4069602272727 39.4069602272727  C 40.4083806818182 38.4055397727273  40.9090909090909 37.2017045454545  41 35.7954545454545  L 41 9.20454545454546  C 40.9090909090909 7.79829545454546  40.4083806818182 6.59446022727272  39.4069602272727 5.59303977272727  C 38.4055397727273 4.59161931818181  37.2017045454545 4.09090909090909  35.7954545454545 4  L 9.20454545454546 4  C 7.79829545454546 4.09090909090909  6.59446022727273 4.59161931818181  5.59303977272727 5.59303977272727  C 4.59161931818182 6.59446022727272  4.09090909090909 7.79829545454546  4 9.20454545454546  L 4 35.7954545454545  C 4.09090909090909 37.2017045454545  4.59161931818182 38.4055397727273  5.59303977272727 39.4069602272727  C 6.59446022727273 40.4083806818182  7.79829545454546 40.9090909090909  9.20454545454546 41  L 35.7954545454545 41  C 37.2017045454545 40.9090909090909  38.4055397727273 40.4083806818182  39.4069602272727 39.4069602272727  Z M 42.2993607954545 2.70063920454546  C 44.0997869318182 4.50106534090909  45 6.66903409090909  45 9.20454545454546  L 45 35.7954545454545  C 45 38.3309659090909  44.0997869318182 40.4989346590909  42.2993607954545 42.2993607954545  C 40.4989346590909 44.0997869318182  38.3309659090909 45  35.7954545454545 45  L 9.20454545454546 45  C 6.66903409090909 45  4.50106534090909 44.0997869318182  2.70063920454545 42.2993607954545  C 0.900213068181818 40.4989346590909  0 38.3309659090909  0 35.7954545454545  L 0 9.20454545454546  C 0 6.66903409090909  0.900213068181818 4.50106534090909  2.70063920454545 2.70063920454546  C 4.50106534090909 0.900213068181814  6.66903409090909 0  9.20454545454546 0  L 35.7954545454545 0  C 38.3309659090909 0  40.4989346590909 0.900213068181814  42.2993607954545 2.70063920454546  Z " fill-rule="nonzero" fill="#000000" stroke="none" transform="matrix(1 0 0 1 373 490 )" />
  </g>
</svg>