<?xml version="1.0" encoding="utf-8"?>
<svg version="1.1" xmlns:xlink="http://www.w3.org/1999/xlink" width="62px" height="63px" xmlns="http://www.w3.org/2000/svg">
  <g transform="matrix(1 0 0 1 -1585 -9 )">
    <path d="M 43.3169642857143 55.423828125  C 47.1227678571429 53.373046875  50.2481398809524 50.58984375  52.6930803571429 47.07421875  C 52.1856398809524 43.44140625  51.1765252976191 40.423828125  49.6657366071429 38.021484375  C 48.1549479166667 35.619140625  46.0271577380952 34.23046875  43.2823660714286 33.85546875  C 41.7369791666667 35.58984375  39.8975074404762 36.943359375  37.7639508928571 37.916015625  C 35.6303943452381 38.888671875  33.3757440476191 39.375  31 39.375  C 28.624255952381 39.375  26.3696056547619 38.888671875  24.2360491071429 37.916015625  C 22.1024925595238 36.943359375  20.2630208333333 35.58984375  18.7176339285714 33.85546875  C 15.9728422619048 34.23046875  13.8450520833333 35.619140625  12.3342633928571 38.021484375  C 10.823474702381 40.423828125  9.81436011904762 43.44140625  9.30691964285714 47.07421875  C 11.7518601190476 50.58984375  14.8772321428571 53.373046875  18.6830357142857 55.423828125  C 22.4888392857143 57.474609375  26.5944940476191 58.5  31 58.5  C 35.405505952381 58.5  39.5111607142857 57.474609375  43.3169642857143 55.423828125  Z M 40.3934151785714 32.044921875  C 42.98828125 29.408203125  44.2857142857143 26.2265625  44.2857142857143 22.5  C 44.2857142857143 18.7734375  42.98828125 15.591796875  40.3934151785714 12.955078125  C 37.7985491071429 10.318359375  34.6674107142857 9  31 9  C 27.3325892857143 9  24.2014508928571 10.318359375  21.6065848214286 12.955078125  C 19.01171875 15.591796875  17.7142857142857 18.7734375  17.7142857142857 22.5  C 17.7142857142857 26.2265625  19.01171875 29.408203125  21.6065848214286 32.044921875  C 24.2014508928571 34.681640625  27.3325892857143 36  31 36  C 34.6674107142857 36  37.7985491071429 34.681640625  40.3934151785714 32.044921875  Z M 59.5435267857143 19.265625  C 61.1811755952381 23.15625  62 27.234375  62 31.5  C 62 35.765625  61.1811755952381 39.837890625  59.5435267857143 43.716796875  C 57.9058779761905 47.595703125  55.7088913690476 50.947265625  52.9525669642857 53.771484375  C 50.1962425595238 56.595703125  46.9036458333333 58.83984375  43.0747767857143 60.50390625  C 39.2459077380952 62.16796875  35.2209821428571 63  31 63  C 26.8020833333333 63  22.7886904761905 62.16796875  18.9598214285714 60.50390625  C 15.1309523809524 58.83984375  11.8325892857143 56.6015625  9.06473214285714 53.7890625  C 6.296875 50.9765625  4.09412202380952 47.625  2.45647321428571 43.734375  C 0.818824404761905 39.84375  0 35.765625  0 31.5  C 0 27.234375  0.818824404761905 23.15625  2.45647321428571 19.265625  C 4.09412202380952 15.375  6.296875 12.0234375  9.06473214285714 9.2109375  C 11.8325892857143 6.3984375  15.1309523809524 4.16015625  18.9598214285714 2.49609375  C 22.7886904761905 0.83203125  26.8020833333333 0  31 0  C 35.1979166666667 0  39.2113095238095 0.83203125  43.0401785714286 2.49609375  C 46.8690476190476 4.16015625  50.1674107142857 6.3984375  52.9352678571429 9.2109375  C 55.703125 12.0234375  57.9058779761905 15.375  59.5435267857143 19.265625  Z " fill-rule="nonzero" fill="#000000" stroke="none" transform="matrix(1 0 0 1 1585 9 )" />
  </g>
</svg>