<?xml version="1.0" encoding="utf-8"?>
<svg version="1.1" xmlns:xlink="http://www.w3.org/1999/xlink" width="32px" height="37px" xmlns="http://www.w3.org/2000/svg">
  <g transform="matrix(1 0 0 1 -1001 -389 )">
    <path d="M 21.65625 16.693359375  C 23.21875 15.4889322916667  24 14.0355902777778  24 12.3333333333333  C 24 10.6310763888889  23.21875 9.177734375  21.65625 7.97330729166667  C 20.09375 6.76888020833333  18.2083333333333 6.16666666666667  16 6.16666666666667  C 13.7916666666667 6.16666666666667  11.90625 6.76888020833333  10.34375 7.97330729166667  C 8.78125 9.177734375  8 10.6310763888889  8 12.3333333333333  C 8 14.0355902777778  8.78125 15.4889322916667  10.34375 16.693359375  C 11.90625 17.8977864583333  13.7916666666667 18.5  16 18.5  C 18.2083333333333 18.5  20.09375 17.8977864583333  21.65625 16.693359375  Z M 27.3125 3.61328125  C 30.4375 6.02213541666667  32 8.92881944444444  32 12.3333333333333  C 32 14.0837673611111  31.65625 15.5210503472222  30.96875 16.6451822916667  L 19.59375 35.2897135416667  C 19.2604166666667 35.8196614583333  18.765625 36.2371961805556  18.109375 36.5423177083333  C 17.453125 36.8474392361111  16.75 37  16 37  C 15.25 37  14.546875 36.8474392361111  13.890625 36.5423177083333  C 13.234375 36.2371961805556  12.75 35.8196614583333  12.4375 35.2897135416667  L 1.03125 16.6451822916667  C 0.34375 15.5210503472222  0 14.0837673611111  0 12.3333333333333  C 0 8.92881944444444  1.5625 6.02213541666667  4.6875 3.61328125  C 7.8125 1.20442708333333  11.5833333333333 0  16 0  C 20.4166666666667 0  24.1875 1.20442708333333  27.3125 3.61328125  Z " fill-rule="nonzero" fill="#000000" stroke="none" transform="matrix(1 0 0 1 1001 389 )" />
  </g>
</svg>