<?xml version="1.0" encoding="utf-8"?>
<svg version="1.1" xmlns:xlink="http://www.w3.org/1999/xlink" width="16px" height="16px" xmlns="http://www.w3.org/2000/svg">
  <g transform="matrix(1 0 0 1 -417 -277 )">
    <path d="M 12.3958333333333 6.66666666666667  C 12.3958333333333 6.84722222222222  12.3298611111111 7.00347222222222  12.1979166666667 7.13541666666667  L 7.80208333333333 11.53125  C 7.67013888888889 11.6631944444444  7.51388888888889 11.7291666666667  7.33333333333333 11.7291666666667  C 7.15277777777778 11.7291666666667  6.99652777777778 11.6631944444444  6.86458333333333 11.53125  L 3.80208333333333 8.46875  C 3.67013888888889 8.33680555555555  3.60416666666667 8.18055555555555  3.60416666666667 8  C 3.60416666666667 7.81944444444444  3.67013888888889 7.66319444444444  3.80208333333333 7.53125  L 4.86458333333333 6.46875  C 4.99652777777778 6.33680555555556  5.15277777777778 6.27083333333333  5.33333333333333 6.27083333333333  C 5.51388888888889 6.27083333333333  5.67013888888889 6.33680555555556  5.80208333333333 6.46875  L 7.33333333333333 8  L 10.1979166666667 5.13541666666667  C 10.3298611111111 5.00347222222222  10.4861111111111 4.9375  10.6666666666667 4.9375  C 10.8472222222222 4.9375  11.0034722222222 5.00347222222222  11.1354166666667 5.13541666666667  L 12.1979166666667 6.19791666666667  C 12.3298611111111 6.32986111111111  12.3958333333333 6.48611111111111  12.3958333333333 6.66666666666667  Z M 12.90625 10.84375  C 13.4131944444444 9.97569444444444  13.6666666666667 9.02777777777778  13.6666666666667 8  C 13.6666666666667 6.97222222222222  13.4131944444444 6.02430555555556  12.90625 5.15625  C 12.3993055555556 4.28819444444444  11.7118055555556 3.60069444444444  10.84375 3.09375  C 9.97569444444444 2.58680555555556  9.02777777777778 2.33333333333333  8 2.33333333333333  C 6.97222222222222 2.33333333333333  6.02430555555556 2.58680555555556  5.15625 3.09375  C 4.28819444444444 3.60069444444444  3.60069444444444 4.28819444444444  3.09375 5.15625  C 2.58680555555556 6.02430555555556  2.33333333333333 6.97222222222222  2.33333333333333 8  C 2.33333333333333 9.02777777777778  2.58680555555556 9.97569444444444  3.09375 10.84375  C 3.60069444444444 11.7118055555556  4.28819444444444 12.3993055555556  5.15625 12.90625  C 6.02430555555556 13.4131944444444  6.97222222222222 13.6666666666667  8 13.6666666666667  C 9.02777777777778 13.6666666666667  9.97569444444444 13.4131944444444  10.84375 12.90625  C 11.7118055555556 12.3993055555556  12.3993055555556 11.7118055555556  12.90625 10.84375  Z M 14.9270833333333 3.984375  C 15.6423611111111 5.21006944444444  16 6.54861111111111  16 8  C 16 9.45138888888889  15.6423611111111 10.7899305555556  14.9270833333333 12.015625  C 14.2118055555556 13.2413194444444  13.2413194444444 14.2118055555556  12.015625 14.9270833333333  C 10.7899305555556 15.6423611111111  9.45138888888889 16  8 16  C 6.54861111111111 16  5.21006944444444 15.6423611111111  3.984375 14.9270833333333  C 2.75868055555556 14.2118055555556  1.78819444444444 13.2413194444444  1.07291666666667 12.015625  C 0.357638888888889 10.7899305555556  0 9.45138888888889  0 8  C 0 6.54861111111111  0.357638888888889 5.21006944444444  1.07291666666667 3.984375  C 1.78819444444444 2.75868055555556  2.75868055555556 1.78819444444444  3.984375 1.07291666666667  C 5.21006944444444 0.357638888888888  6.54861111111111 0  8 0  C 9.45138888888889 0  10.7899305555556 0.357638888888888  12.015625 1.07291666666667  C 13.2413194444444 1.78819444444444  14.2118055555556 2.75868055555556  14.9270833333333 3.984375  Z " fill-rule="nonzero" fill="#000000" stroke="none" transform="matrix(1 0 0 1 417 277 )" />
  </g>
</svg>