<?xml version="1.0" encoding="utf-8"?>
<svg version="1.1" xmlns:xlink="http://www.w3.org/1999/xlink" width="16px" height="16px" xmlns="http://www.w3.org/2000/svg">
  <g transform="matrix(1 0 0 1 -531 -277 )">
    <path d="M 2.20535714285714 13.4270833333333  C 2.25892857142857 13.4895833333333  2.28571428571429 13.5694444444444  2.28571428571429 13.6666666666667  L 2.28571428571429 15.6666666666667  C 2.28571428571429 15.7638888888889  2.25892857142857 15.84375  2.20535714285714 15.90625  C 2.15178571428571 15.96875  2.08333333333333 16  2 16  L 0.285714285714286 16  C 0.202380952380952 16  0.133928571428571 15.96875  0.0803571428571429 15.90625  C 0.0267857142857143 15.84375  0 15.7638888888889  0 15.6666666666667  L 0 13.6666666666667  C 0 13.5694444444444  0.0267857142857143 13.4895833333333  0.0803571428571429 13.4270833333333  C 0.133928571428571 13.3645833333333  0.202380952380952 13.3333333333333  0.285714285714286 13.3333333333333  L 2 13.3333333333333  C 2.08333333333333 13.3333333333333  2.15178571428571 13.3645833333333  2.20535714285714 13.4270833333333  Z M 5.63392857142857 12.09375  C 5.6875 12.15625  5.71428571428571 12.2361111111111  5.71428571428571 12.3333333333333  L 5.71428571428571 15.6666666666667  C 5.71428571428571 15.7638888888889  5.6875 15.84375  5.63392857142857 15.90625  C 5.58035714285714 15.96875  5.51190476190476 16  5.42857142857143 16  L 3.71428571428571 16  C 3.63095238095238 16  3.5625 15.96875  3.50892857142857 15.90625  C 3.45535714285714 15.84375  3.42857142857143 15.7638888888889  3.42857142857143 15.6666666666667  L 3.42857142857143 12.3333333333333  C 3.42857142857143 12.2361111111111  3.45535714285714 12.15625  3.50892857142857 12.09375  C 3.5625 12.03125  3.63095238095238 12  3.71428571428571 12  L 5.42857142857143 12  C 5.51190476190476 12  5.58035714285714 12.03125  5.63392857142857 12.09375  Z M 9.0625 9.42708333333333  C 9.11607142857143 9.48958333333333  9.14285714285714 9.56944444444444  9.14285714285714 9.66666666666667  L 9.14285714285714 15.6666666666667  C 9.14285714285714 15.7638888888889  9.11607142857143 15.84375  9.0625 15.90625  C 9.00892857142857 15.96875  8.94047619047619 16  8.85714285714286 16  L 7.14285714285714 16  C 7.05952380952381 16  6.99107142857143 15.96875  6.9375 15.90625  C 6.88392857142857 15.84375  6.85714285714286 15.7638888888889  6.85714285714286 15.6666666666667  L 6.85714285714286 9.66666666666667  C 6.85714285714286 9.56944444444444  6.88392857142857 9.48958333333333  6.9375 9.42708333333333  C 6.99107142857143 9.36458333333333  7.05952380952381 9.33333333333333  7.14285714285714 9.33333333333333  L 8.85714285714286 9.33333333333333  C 8.94047619047619 9.33333333333333  9.00892857142857 9.36458333333333  9.0625 9.42708333333333  Z M 12.4910714285714 5.42708333333333  C 12.5446428571429 5.48958333333333  12.5714285714286 5.56944444444444  12.5714285714286 5.66666666666667  L 12.5714285714286 15.6666666666667  C 12.5714285714286 15.7638888888889  12.5446428571429 15.84375  12.4910714285714 15.90625  C 12.4375 15.96875  12.3690476190476 16  12.2857142857143 16  L 10.5714285714286 16  C 10.4880952380952 16  10.4196428571429 15.96875  10.3660714285714 15.90625  C 10.3125 15.84375  10.2857142857143 15.7638888888889  10 15.6666666666667  L 10 5.66666666666667  C 10.2857142857143 5.56944444444444  10.3125 5.48958333333333  10.3660714285714 5.42708333333333  C 10.4196428571429 5.36458333333333  10.4880952380952 5.33333333333333  10.5714285714286 5.33333333333333  L 12.2857142857143 5.33333333333333  C 12.3690476190476 5.33333333333333  12.4375 5.36458333333333  12.4910714285714 5.42708333333333  Z M 15.9196428571429 0.09375  C 15.9732142857143 0.15625  16 0.236111111111109  16 0.333333333333334  L 16 15.6666666666667  C 16 15.7638888888889  15.9732142857143 15.84375  15.9196428571429 15.90625  C 15.8660714285714 15.96875  15.797619047619 16  15.7142857142857 16  L 14 16  C 13.9166666666667 16  13.8482142857143 15.96875  13.7946428571429 15.90625  C 13.7410714285714 15.84375  13.7142857142857 15.7638888888889  13.7142857142857 15.6666666666667  L 13.7142857142857 0.333333333333334  C 13.7142857142857 0.236111111111109  13.7410714285714 0.15625  13.7946428571429 0.09375  C 13.8482142857143 0.03125  13.9166666666667 0  14 0  L 15.7142857142857 0  C 15.797619047619 0  15.8660714285714 0.03125  15.9196428571429 0.09375  Z " fill-rule="nonzero" fill="#000000" stroke="none" transform="matrix(1 0 0 1 531 277 )" />
  </g>
</svg>