<?xml version="1.0" encoding="utf-8"?>
<svg version="1.1" xmlns:xlink="http://www.w3.org/1999/xlink" width="16px" height="16px" xmlns="http://www.w3.org/2000/svg">
  <g transform="matrix(1 0 0 1 -1144 -231 )">
    <path d="M 4.26666666666667 5.71428571428571  C 4.26666666666667 6.54166666666667  4.49166666666667 7.30357142857143  4.94166666666667 8  C 4.04166666666667 8.02976190476191  3.30555555555556 8.41071428571428  2.73333333333333 9.14285714285714  L 1.61666666666667 9.14285714285714  C 1.16111111111111 9.14285714285714  0.777777777777778 9.02232142857143  0.466666666666667 8.78125  C 0.155555555555556 8.54017857142857  0 8.1875  0 7.72321428571429  C 0 5.62202380952381  0.344444444444444 4.57142857142857  1.03333333333333 4.57142857142857  C 1.06666666666667 4.57142857142857  1.1875 4.63392857142857  1.39583333333333 4.75892857142857  C 1.60416666666667 4.88392857142857  1.875 5.01041666666667  2.20833333333333 5.13839285714286  C 2.54166666666667 5.26636904761905  2.87222222222222 5.33035714285714  3.2 5.33035714285714  C 3.57222222222222 5.33035714285714  3.94166666666667 5.26190476190476  4.30833333333333 5.125  C 4.28055555555556 5.34523809523809  4.26666666666667 5.54166666666667  4.26666666666667 5.71428571428571  Z M 13.8375 12.7633928571429  C 13.8569444444444 13.0639880952381  13.8666666666667 13.3720238095238  13.8666666666667 13.6875  C 13.8666666666667 14.4017857142857  13.6638888888889 14.9657738095238  13.2583333333333 15.3794642857143  C 12.8527777777778 15.7931547619048  12.3138888888889 16  11.6416666666667 16  L 4.35833333333333 16  C 3.68611111111111 16  3.14722222222222 15.7931547619048  2.74166666666667 15.3794642857143  C 2.33611111111111 14.9657738095238  2.13333333333333 14.4017857142857  2.13333333333333 13.6875  C 2.13333333333333 13.3720238095238  2.14305555555556 13.0639880952381  2.1625 12.7633928571429  C 2.18194444444444 12.4627976190476  2.22083333333333 12.1383928571429  2.27916666666667 11.7901785714286  C 2.3375 11.4419642857143  2.41111111111111 11.1190476190476  2.5 10.8214285714286  C 2.58888888888889 10.5238095238095  2.70833333333333 10.233630952381  2.85833333333333 9.95089285714286  C 3.00833333333333 9.66815476190476  3.18055555555556 9.42708333333333  3.375 9.22767857142857  C 3.56944444444444 9.02827380952381  3.80694444444444 8.86904761904762  4.0875 8.75  C 4.36805555555556 8.63095238095238  4.67777777777778 8.57142857142857  5.01666666666667 8.57142857142857  C 5.07222222222222 8.57142857142857  5.19166666666667 8.63541666666667  5.375 8.76339285714286  C 5.55833333333333 8.89136904761905  5.76111111111111 9.03422619047619  5.98333333333333 9.19196428571428  C 6.20555555555556 9.34970238095238  6.50277777777778 9.49255952380952  6.875 9.62053571428572  C 7.24722222222222 9.74851190476191  7.62222222222222 9.8125  8 9.8125  C 8.37777777777778 9.8125  8.75277777777778 9.74851190476191  9.125 9.62053571428572  C 9.49722222222222 9.49255952380952  9.79444444444445 9.34970238095238  10.0166666666667 9.19196428571428  C 10.2388888888889 9.03422619047619  10.4416666666667 8.89136904761905  10.625 8.76339285714286  C 10.8083333333333 8.63541666666667  10.9277777777778 8.57142857142857  10.9833333333333 8.57142857142857  C 11.3222222222222 8.57142857142857  11.6319444444444 8.63095238095238  11.9125 8.75  C 12.1930555555556 8.86904761904762  12.4305555555556 9.02827380952381  12.625 9.22767857142857  C 12.8194444444444 9.42708333333333  12.9916666666667 9.66815476190476  13.1416666666667 9.95089285714286  C 13.2916666666667 10.233630952381  13.4111111111111 10.5238095238095  13.5 10.8214285714286  C 13.5888888888889 11.1190476190476  13.6625 11.4419642857143  13.7208333333333 11.7901785714286  C 13.7791666666667 12.1383928571429  13.8180555555556 12.4627976190476  13.8375 12.7633928571429  Z M 4.70833333333333 0.669642857142858  C 5.125 1.11607142857143  5.33333333333333 1.6547619047619  5.33333333333333 2.28571428571429  C 5.33333333333333 2.91666666666667  5.125 3.45535714285714  4.70833333333333 3.90178571428571  C 4.29166666666667 4.34821428571429  3.78888888888889 4.57142857142857  3.2 4.57142857142857  C 2.61111111111111 4.57142857142857  2.10833333333333 4.34821428571429  1.69166666666667 3.90178571428571  C 1.275 3.45535714285714  1.06666666666667 2.91666666666667  1.06666666666667 2.28571428571429  C 1.06666666666667 1.6547619047619  1.275 1.11607142857143  1.69166666666667 0.669642857142858  C 2.10833333333333 0.223214285714286  2.61111111111111 0  3.2 0  C 3.78888888888889 0  4.29166666666667 0.223214285714286  4.70833333333333 0.669642857142858  Z M 10.2625 3.29017857142857  C 10.8875 3.95982142857143  11.2 4.76785714285714  11.2 5.71428571428571  C 11.2 6.66071428571429  10.8875 7.46875  10.2625 8.13839285714286  C 9.6375 8.80803571428572  8.88333333333333 9.14285714285714  8 9.14285714285714  C 7.11666666666667 9.14285714285714  6.3625 8.80803571428572  5.7375 8.13839285714286  C 5.1125 7.46875  4.8 6.66071428571429  4.8 5.71428571428571  C 4.8 4.76785714285714  5.1125 3.95982142857143  5.7375 3.29017857142857  C 6.3625 2.62053571428571  7.11666666666667 2.28571428571429  8 2.28571428571429  C 8.88333333333333 2.28571428571429  9.6375 2.62053571428571  10.2625 3.29017857142857  Z M 14.9666666666667 4.57142857142857  C 15.6555555555556 4.57142857142857  16 5.62202380952381  16 7.72321428571429  C 16 8.1875  15.8444444444444 8.54017857142857  15.5333333333333 8.78125  C 15.2222222222222 9.02232142857143  14.8388888888889 9.14285714285714  14.3833333333333 9.14285714285714  L 13.2666666666667 9.14285714285714  C 12.6944444444444 8.41071428571428  11.9583333333333 8.02976190476191  11.0583333333333 8  C 11.5083333333333 7.30357142857143  11.7333333333333 6.54166666666667  11.7333333333333 5.71428571428571  C 11.7333333333333 5.54166666666667  11.7194444444444 5.34523809523809  11.6916666666667 5.125  C 12.0583333333333 5.26190476190476  12.4277777777778 5.33035714285714  12.8 5.33035714285714  C 13.1277777777778 5.33035714285714  13.4583333333333 5.26636904761905  13.7916666666667 5.13839285714286  C 14.125 5.01041666666667  14.3958333333333 4.88392857142857  14.6041666666667 4.75892857142857  C 14.8125 4.63392857142857  14.9333333333333 4.57142857142857  14.9666666666667 4.57142857142857  Z M 14.3083333333333 0.669642857142858  C 14.725 1.11607142857143  14.9333333333333 1.6547619047619  14.9333333333333 2.28571428571429  C 14.9333333333333 2.91666666666667  14.725 3.45535714285714  14.3083333333333 3.90178571428571  C 13.8916666666667 4.34821428571429  13.3888888888889 4.57142857142857  12.8 4.57142857142857  C 12.2111111111111 4.57142857142857  11.7083333333333 4.34821428571429  11.2916666666667 3.90178571428571  C 10.875 3.45535714285714  10.6666666666667 2.91666666666667  10.6666666666667 2.28571428571429  C 10.6666666666667 1.6547619047619  10.875 1.11607142857143  11.2916666666667 0.669642857142858  C 11.7083333333333 0.223214285714286  12.2111111111111 0  12.8 0  C 13.3888888888889 0  13.8916666666667 0.223214285714286  14.3083333333333 0.669642857142858  Z " fill-rule="nonzero" fill="#000000" stroke="none" transform="matrix(1 0 0 1 1144 231 )" />
  </g>
</svg>