<?xml version="1.0" encoding="utf-8"?>
<svg version="1.1" xmlns:xlink="http://www.w3.org/1999/xlink" width="11px" height="16px" xmlns="http://www.w3.org/2000/svg">
  <g transform="matrix(1 0 0 1 -1184 -231 )">
    <path d="M 7.4443359375 7.21875  C 7.9814453125 6.69791666666667  8.25 6.06944444444444  8.25 5.33333333333333  C 8.25 4.59722222222222  7.9814453125 3.96875  7.4443359375 3.44791666666667  C 6.9072265625 2.92708333333333  6.25911458333333 2.66666666666667  5.5 2.66666666666667  C 4.74088541666667 2.66666666666667  4.0927734375 2.92708333333333  3.5556640625 3.44791666666667  C 3.0185546875 3.96875  2.75 4.59722222222222  2.75 5.33333333333333  C 2.75 6.06944444444444  3.0185546875 6.69791666666667  3.5556640625 7.21875  C 4.0927734375 7.73958333333333  4.74088541666667 8  5.5 8  C 6.25911458333333 8  6.9072265625 7.73958333333333  7.4443359375 7.21875  Z M 9.388671875 1.5625  C 10.462890625 2.60416666666667  11 3.86111111111111  11 5.33333333333333  C 11 6.09027777777778  10.8818359375 6.71180555555556  10.6455078125 7.19791666666667  L 6.7353515625 15.2604166666667  C 6.62076822916667 15.4895833333333  6.45068359375 15.6701388888889  6.22509765625 15.8020833333333  C 5.99951171875 15.9340277777778  5.7578125 16  5.5 16  C 5.2421875 16  5.00048828125 15.9340277777778  4.77490234375 15.8020833333333  C 4.54931640625 15.6701388888889  4.3828125 15.4895833333333  4.275390625 15.2604166666667  L 0.3544921875 7.19791666666667  C 0.1181640625 6.71180555555556  0 6.09027777777778  0 5.33333333333333  C 0 3.86111111111111  0.537109375 2.60416666666667  1.611328125 1.5625  C 2.685546875 0.520833333333334  3.98177083333333 0  5.5 0  C 7.01822916666667 0  8.314453125 0.520833333333334  9.388671875 1.5625  Z " fill-rule="nonzero" fill="#000000" stroke="none" transform="matrix(1 0 0 1 1184 231 )" />
  </g>
</svg>